<?xml version="1.0" encoding="UTF-8" standalone="no"?><svg xmlns="http://www.w3.org/2000/svg" xmlns:xlink="http://www.w3.org/1999/xlink" contentScriptType="application/ecmascript" contentStyleType="text/css" height="291px" preserveAspectRatio="none" style="width:184px;height:291px;background:#FFFFFF;" version="1.1" viewBox="0 0 184 291" width="184px" zoomAndPan="magnify"><defs><filter height="300%" id="fam5s7g8mstmp" width="300%" x="-1" y="-1"><feGaussianBlur result="blurOut" stdDeviation="2.0"/><feColorMatrix in="blurOut" result="blurOut2" type="matrix" values="0 0 0 0 0 0 0 0 0 0 0 0 0 0 0 0 0 0 .4 0"/><feOffset dx="4.0" dy="4.0" in="blurOut2" result="blurOut3"/><feBlend in="SourceGraphic" in2="blurOut3" mode="normal"/></filter></defs><g><!--MD5=[1cf02bb838a34b4b74ce0f8d62a082f4]
class ClientData--><rect codeLine="4" fill="#FEFECE" filter="url(#fam5s7g8mstmp)" height="150.4375" id="ClientData" style="stroke:#A80036;stroke-width:1.5;" width="163" x="7" y="7"/><ellipse cx="51.75" cy="23" fill="#ADD1B2" rx="11" ry="11" style="stroke:#A80036;stroke-width:1.0;"/><path d="M54.7188,28.6406 Q54.1406,28.9375 53.5,29.0781 Q52.8594,29.2344 52.1563,29.2344 Q49.6563,29.2344 48.3281,27.5938 Q47.0156,25.9375 47.0156,22.8125 Q47.0156,19.6875 48.3281,18.0313 Q49.6563,16.375 52.1563,16.375 Q52.8594,16.375 53.5,16.5313 Q54.1563,16.6875 54.7188,16.9844 L54.7188,19.7031 Q54.0938,19.125 53.5,18.8594 Q52.9063,18.5781 52.2813,18.5781 Q50.9375,18.5781 50.25,19.6563 Q49.5625,20.7188 49.5625,22.8125 Q49.5625,24.9063 50.25,25.9844 Q50.9375,27.0469 52.2813,27.0469 Q52.9063,27.0469 53.5,26.7813 Q54.0938,26.5 54.7188,25.9219 L54.7188,28.6406 Z " fill="#000000"/><text fill="#000000" font-family="sans-serif" font-size="12" lengthAdjust="spacing" textLength="65" x="72.25" y="27.1543">ClientData</text><line style="stroke:#A80036;stroke-width:1.5;" x1="8" x2="169" y1="39" y2="39"/><text fill="#000000" font-family="sans-serif" font-size="11" lengthAdjust="spacing" textLength="66" x="13" y="53.2104">_id: ClientId</text><text fill="#000000" font-family="sans-serif" font-size="11" lengthAdjust="spacing" textLength="74" x="13" y="66.0151">name: String</text><text fill="#000000" font-family="sans-serif" font-size="11" lengthAdjust="spacing" textLength="49" x="13" y="78.8198">age: Int?</text><text fill="#000000" font-family="sans-serif" font-size="11" lengthAdjust="spacing" textLength="145" x="13" y="91.6245">createdAt: LocalDateTime</text><text fill="#000000" font-family="sans-serif" font-size="11" lengthAdjust="spacing" textLength="105" x="13" y="104.4292">activated: Boolean</text><text fill="#000000" font-family="sans-serif" font-size="11" lengthAdjust="spacing" textLength="151" x="13" y="117.2339">modifiedAt: LocalDateTime</text><line style="stroke:#A80036;stroke-width:1.5;" x1="8" x2="169" y1="123.8281" y2="123.8281"/><ellipse cx="18" cy="134.8281" fill="#84BE84" rx="3" ry="3" style="stroke:#038048;stroke-width:1.0;"/><text fill="#000000" font-family="sans-serif" font-size="11" lengthAdjust="spacing" textLength="96" x="27" y="138.0386">isNew(): Boolean</text><ellipse cx="18" cy="147.6328" fill="#84BE84" rx="3" ry="3" style="stroke:#038048;stroke-width:1.0;"/><text fill="#000000" font-family="sans-serif" font-size="11" lengthAdjust="spacing" textLength="86" x="27" y="150.8433">getId(): ClientId</text><!--MD5=[2830222c4409b8d1c0fc655370a64121]
class ClientId--><rect codeLine="18" fill="#FEFECE" filter="url(#fam5s7g8mstmp)" height="60.8047" id="ClientId" style="stroke:#A80036;stroke-width:1.5;" width="78" x="49.5" y="217"/><ellipse cx="64.5" cy="233" fill="#ADD1B2" rx="11" ry="11" style="stroke:#A80036;stroke-width:1.0;"/><path d="M67.4688,238.6406 Q66.8906,238.9375 66.25,239.0781 Q65.6094,239.2344 64.9063,239.2344 Q62.4063,239.2344 61.0781,237.5938 Q59.7656,235.9375 59.7656,232.8125 Q59.7656,229.6875 61.0781,228.0313 Q62.4063,226.375 64.9063,226.375 Q65.6094,226.375 66.25,226.5313 Q66.9063,226.6875 67.4688,226.9844 L67.4688,229.7031 Q66.8438,229.125 66.25,228.8594 Q65.6563,228.5781 65.0313,228.5781 Q63.6875,228.5781 63,229.6563 Q62.3125,230.7188 62.3125,232.8125 Q62.3125,234.9063 63,235.9844 Q63.6875,237.0469 65.0313,237.0469 Q65.6563,237.0469 66.25,236.7813 Q66.8438,236.5 67.4688,235.9219 L67.4688,238.6406 Z " fill="#000000"/><text fill="#000000" font-family="sans-serif" font-size="12" lengthAdjust="spacing" textLength="46" x="78.5" y="237.1543">ClientId</text><line style="stroke:#A80036;stroke-width:1.5;" x1="50.5" x2="126.5" y1="249" y2="249"/><text fill="#000000" font-family="sans-serif" font-size="11" lengthAdjust="spacing" textLength="41" x="55.5" y="263.2104">UUID id</text><line style="stroke:#A80036;stroke-width:1.5;" x1="50.5" x2="126.5" y1="269.8047" y2="269.8047"/><!--MD5=[7b12171c929bb2020e1301da23999e7d]
link ClientData to ClientId--><path codeLine="16" d="M88.5,169.1 C88.5,169.1 88.5,193.31 88.5,203.57 " fill="none" id="ClientData-ClientId" style="stroke:#707070;stroke-width:1.0;"/><polygon fill="#707070" points="88.5,216.82,92.5,207.82,88.5,211.82,84.5,207.82,88.5,216.82" style="stroke:#707070;stroke-width:1.0;"/><line style="stroke:#707070;stroke-width:1.0;" x1="88.5" x2="88.5" y1="211.82" y2="203.82"/><polygon fill="#707070" points="88.5,157.1,84.5,163.1,88.5,169.1,92.5,163.1,88.5,157.1" style="stroke:#707070;stroke-width:1.0;"/><text fill="#000000" font-family="sans-serif" font-size="13" lengthAdjust="spacing" textLength="11" x="76.3656" y="206.0461">id</text><!--MD5=[a9cd43e2247212867297a092b890a289]
@startuml

!includeurl https://raw.githubusercontent.com/skleanthous/C4-PlantumlSkin/master/build/output/general/general.puml

class ClientData {
    _id: ClientId
    name: String
    age: Int?
    createdAt: LocalDateTime
    activated: Boolean
    modifiedAt: LocalDateTime

    +isNew(): Boolean
    +getId(): ClientId
}

ClientData *- -> "id" ClientId

class ClientId {
    UUID id
}

@enduml

@startuml








skinparam {
  shadowing true
  arrowColor #707070
  defaultTextAlignment center
  wrapWidth 200
  maxMessageSize 150
}

class ClientData {
    _id: ClientId
    name: String
    age: Int?
    createdAt: LocalDateTime
    activated: Boolean
    modifiedAt: LocalDateTime

    +isNew(): Boolean
    +getId(): ClientId
}

ClientData *- -> "id" ClientId

class ClientId {
    UUID id
}

@enduml

PlantUML version 1.2021.16(Wed Dec 08 17:25:22 UTC 2021)
(GPL source distribution)
Java Runtime: OpenJDK Runtime Environment
JVM: OpenJDK 64-Bit Server VM
Default Encoding: UTF-8
Language: en
Country: 
--></g></svg>