<?xml version="1.0" encoding="UTF-8" standalone="no"?><svg xmlns="http://www.w3.org/2000/svg" xmlns:xlink="http://www.w3.org/1999/xlink" contentScriptType="application/ecmascript" contentStyleType="text/css" height="413px" preserveAspectRatio="none" style="width:591px;height:413px;background:#FFFFFF;" version="1.1" viewBox="0 0 591 413" width="591px" zoomAndPan="magnify"><defs><filter height="300%" id="fw5id0y89n4ly" width="300%" x="-1" y="-1"><feGaussianBlur result="blurOut" stdDeviation="2.0"/><feColorMatrix in="blurOut" result="blurOut2" type="matrix" values="0 0 0 0 0 0 0 0 0 0 0 0 0 0 0 0 0 0 .4 0"/><feOffset dx="4.0" dy="4.0" in="blurOut2" result="blurOut3"/><feBlend in="SourceGraphic" in2="blurOut3" mode="normal"/></filter></defs><g><!--MD5=[ed6624c6556d5e7b1bd23032162d20b7]
class Client--><rect codeLine="4" fill="#FEFECE" filter="url(#fw5id0y89n4ly)" height="48" id="Client" style="stroke:#A80036;stroke-width:1.5;" width="67" x="258.5" y="205"/><ellipse cx="273.5" cy="221" fill="#ADD1B2" rx="11" ry="11" style="stroke:#A80036;stroke-width:1.0;"/><path d="M276.4688,226.6406 Q275.8906,226.9375 275.25,227.0781 Q274.6094,227.2344 273.9063,227.2344 Q271.4063,227.2344 270.0781,225.5938 Q268.7656,223.9375 268.7656,220.8125 Q268.7656,217.6875 270.0781,216.0313 Q271.4063,214.375 273.9063,214.375 Q274.6094,214.375 275.25,214.5313 Q275.9063,214.6875 276.4688,214.9844 L276.4688,217.7031 Q275.8438,217.125 275.25,216.8594 Q274.6563,216.5781 274.0313,216.5781 Q272.6875,216.5781 272,217.6563 Q271.3125,218.7188 271.3125,220.8125 Q271.3125,222.9063 272,223.9844 Q272.6875,225.0469 274.0313,225.0469 Q274.6563,225.0469 275.25,224.7813 Q275.8438,224.5 276.4688,223.9219 L276.4688,226.6406 Z " fill="#000000"/><text fill="#000000" font-family="sans-serif" font-size="12" lengthAdjust="spacing" textLength="35" x="287.5" y="225.1543">Client</text><line style="stroke:#A80036;stroke-width:1.5;" x1="259.5" x2="324.5" y1="237" y2="237"/><line style="stroke:#A80036;stroke-width:1.5;" x1="259.5" x2="324.5" y1="245" y2="245"/><!--MD5=[2830222c4409b8d1c0fc655370a64121]
class ClientId--><rect codeLine="9" fill="#FEFECE" filter="url(#fw5id0y89n4ly)" height="60.8047" id="ClientId" style="stroke:#A80036;stroke-width:1.5;" width="78" x="187" y="325.5"/><ellipse cx="202" cy="341.5" fill="#ADD1B2" rx="11" ry="11" style="stroke:#A80036;stroke-width:1.0;"/><path d="M204.9688,347.1406 Q204.3906,347.4375 203.75,347.5781 Q203.1094,347.7344 202.4063,347.7344 Q199.9063,347.7344 198.5781,346.0938 Q197.2656,344.4375 197.2656,341.3125 Q197.2656,338.1875 198.5781,336.5313 Q199.9063,334.875 202.4063,334.875 Q203.1094,334.875 203.75,335.0313 Q204.4063,335.1875 204.9688,335.4844 L204.9688,338.2031 Q204.3438,337.625 203.75,337.3594 Q203.1563,337.0781 202.5313,337.0781 Q201.1875,337.0781 200.5,338.1563 Q199.8125,339.2188 199.8125,341.3125 Q199.8125,343.4063 200.5,344.4844 Q201.1875,345.5469 202.5313,345.5469 Q203.1563,345.5469 203.75,345.2813 Q204.3438,345 204.9688,344.4219 L204.9688,347.1406 Z " fill="#000000"/><text fill="#000000" font-family="sans-serif" font-size="12" lengthAdjust="spacing" textLength="46" x="216" y="345.6543">ClientId</text><line style="stroke:#A80036;stroke-width:1.5;" x1="188" x2="264" y1="357.5" y2="357.5"/><text fill="#000000" font-family="sans-serif" font-size="11" lengthAdjust="spacing" textLength="41" x="193" y="371.7104">UUID id</text><line style="stroke:#A80036;stroke-width:1.5;" x1="188" x2="264" y1="378.3047" y2="378.3047"/><!--MD5=[adcbc6e3bcff73cad1ae572eb61a42f4]
class ClientState--><rect codeLine="13" fill="#FEFECE" filter="url(#fw5id0y89n4ly)" height="86.4141" id="ClientState" style="stroke:#A80036;stroke-width:1.5;" width="117" x="300.5" y="313"/><ellipse cx="322.7" cy="329" fill="#ADD1B2" rx="11" ry="11" style="stroke:#A80036;stroke-width:1.0;"/><path d="M325.6688,334.6406 Q325.0906,334.9375 324.45,335.0781 Q323.8094,335.2344 323.1063,335.2344 Q320.6063,335.2344 319.2781,333.5938 Q317.9656,331.9375 317.9656,328.8125 Q317.9656,325.6875 319.2781,324.0313 Q320.6063,322.375 323.1063,322.375 Q323.8094,322.375 324.45,322.5313 Q325.1063,322.6875 325.6688,322.9844 L325.6688,325.7031 Q325.0438,325.125 324.45,324.8594 Q323.8563,324.5781 323.2313,324.5781 Q321.8875,324.5781 321.2,325.6563 Q320.5125,326.7188 320.5125,328.8125 Q320.5125,330.9063 321.2,331.9844 Q321.8875,333.0469 323.2313,333.0469 Q323.8563,333.0469 324.45,332.7813 Q325.0438,332.5 325.6688,331.9219 L325.6688,334.6406 Z " fill="#000000"/><text fill="#000000" font-family="sans-serif" font-size="12" lengthAdjust="spacing" textLength="69" x="338.3" y="333.1543">ClientState</text><line style="stroke:#A80036;stroke-width:1.5;" x1="301.5" x2="416.5" y1="345" y2="345"/><text fill="#000000" font-family="sans-serif" font-size="11" lengthAdjust="spacing" textLength="74" x="306.5" y="359.2104">name: String</text><text fill="#000000" font-family="sans-serif" font-size="11" lengthAdjust="spacing" textLength="43" x="306.5" y="372.0151">age: Int</text><text fill="#000000" font-family="sans-serif" font-size="11" lengthAdjust="spacing" textLength="105" x="306.5" y="384.8198">activated: Boolean</text><line style="stroke:#A80036;stroke-width:1.5;" x1="301.5" x2="416.5" y1="391.4141" y2="391.4141"/><!--MD5=[50517cd8d76fa284d183a993d38d0bc5]
class ClientRepository--><rect codeLine="19" fill="#FEFECE" filter="url(#fw5id0y89n4ly)" height="137.6328" id="ClientRepository" style="stroke:#A80036;stroke-width:1.5;" width="570" x="7" y="7"/><ellipse cx="237.25" cy="23" fill="#B4A7E5" rx="11" ry="11" style="stroke:#A80036;stroke-width:1.0;"/><path d="M233.1719,18.7656 L233.1719,16.6094 L240.5625,16.6094 L240.5625,18.7656 L238.0938,18.7656 L238.0938,26.8438 L240.5625,26.8438 L240.5625,29 L233.1719,29 L233.1719,26.8438 L235.6406,26.8438 L235.6406,18.7656 L233.1719,18.7656 Z " fill="#000000"/><text fill="#000000" font-family="sans-serif" font-size="12" font-style="italic" lengthAdjust="spacing" textLength="101" x="257.75" y="27.1543">ClientRepository</text><line style="stroke:#A80036;stroke-width:1.5;" x1="8" x2="576" y1="39" y2="39"/><line style="stroke:#A80036;stroke-width:1.5;" x1="8" x2="576" y1="47" y2="47"/><ellipse cx="18" cy="58" fill="#84BE84" rx="3" ry="3" style="stroke:#038048;stroke-width:1.0;"/><text fill="#000000" font-family="sans-serif" font-size="11" lengthAdjust="spacing" textLength="189" x="27" y="61.2104">save(Client.State): Mono&lt;Client&gt;</text><ellipse cx="18" cy="70.8047" fill="#84BE84" rx="3" ry="3" style="stroke:#038048;stroke-width:1.0;"/><text fill="#000000" font-family="sans-serif" font-size="11" lengthAdjust="spacing" textLength="239" x="27" y="74.0151">save(ClientId, Client.State): Mono&lt;Client&gt;</text><ellipse cx="18" cy="83.6094" fill="#84BE84" rx="3" ry="3" style="stroke:#038048;stroke-width:1.0;"/><text fill="#000000" font-family="sans-serif" font-size="11" lengthAdjust="spacing" textLength="155" x="27" y="86.8198">save(Client): Mono&lt;Client&gt;</text><ellipse cx="18" cy="96.4141" fill="#84BE84" rx="3" ry="3" style="stroke:#038048;stroke-width:1.0;"/><text fill="#000000" font-family="sans-serif" font-size="11" lengthAdjust="spacing" textLength="360" x="27" y="99.6245">findOne(ClientId, activatedOnly: Boolean = true): Mono&lt;Client&gt;</text><ellipse cx="18" cy="109.2188" fill="#84BE84" rx="3" ry="3" style="stroke:#038048;stroke-width:1.0;"/><text fill="#000000" font-family="sans-serif" font-size="11" lengthAdjust="spacing" textLength="544" x="27" y="112.4292">findByName(name: String, strict: Boolean = false, activatedOnly: Boolean = true): Flux&lt;Client&gt;</text><ellipse cx="18" cy="122.0234" fill="#84BE84" rx="3" ry="3" style="stroke:#038048;stroke-width:1.0;"/><text fill="#000000" font-family="sans-serif" font-size="11" lengthAdjust="spacing" textLength="292" x="27" y="125.2339">findAll(activatedOnly: Boolean = true): Flux&lt;Client&gt;</text><ellipse cx="18" cy="134.8281" fill="#84BE84" rx="3" ry="3" style="stroke:#038048;stroke-width:1.0;"/><text fill="#000000" font-family="sans-serif" font-size="11" lengthAdjust="spacing" textLength="171" x="27" y="138.0386">remove(Client): Mono&lt;Client&gt;</text><!--MD5=[f5414ceff1c8c2532092112745c11305]
link Client to ClientId--><path codeLine="6" d="M274.132,263.829 C274.132,263.829 256.14,297.92 247.81,313.69 " fill="none" id="Client-ClientId" style="stroke:#A80036;stroke-width:1.0;"/><polygon fill="#A80036" points="241.69,325.28,249.4292,319.1886,244.0244,320.8584,242.3546,315.4536,241.69,325.28" style="stroke:#A80036;stroke-width:1.0;"/><line style="stroke:#A80036;stroke-width:1.0;" x1="244.0244" x2="247.765" y1="320.8584" y2="313.785"/><polygon fill="#A80036" points="279.74,253.22,273.3997,256.6552,274.132,263.829,280.4723,260.3938,279.74,253.22" style="stroke:#A80036;stroke-width:1.0;"/><text fill="#000000" font-family="sans-serif" font-size="13" lengthAdjust="spacing" textLength="8" x="236.1011" y="314.4979">1</text><!--MD5=[91e1198643303d9b6166885c1531c74a]
link Client to ClientState--><path codeLine="7" d="M310.1203,263.7958 C310.1203,263.7958 323.65,289.05 330.24,301.35 " fill="none" id="Client-ClientState" style="stroke:#A80036;stroke-width:1.0;"/><polygon fill="#A80036" points="336.45,312.94,335.7225,303.118,334.0874,308.5334,328.672,306.8983,336.45,312.94" style="stroke:#A80036;stroke-width:1.0;"/><line style="stroke:#A80036;stroke-width:1.0;" x1="334.0874" x2="330.31" y1="308.5334" y2="301.48"/><polygon fill="#A80036" points="304.45,253.22,303.7599,260.398,310.1203,263.7958,310.8104,256.6178,304.45,253.22" style="stroke:#A80036;stroke-width:1.0;"/><text fill="#000000" font-family="sans-serif" font-size="13" lengthAdjust="spacing" textLength="8" x="324.2186" y="301.9265">1</text><!--MD5=[73106bb2de68a497ba0ad235fc010d3c]
link ClientRepository to Client--><path codeLine="29" d="M292,145.43 C292,164.64 292,184.47 292,199.87 " fill="none" id="ClientRepository-to-Client" style="stroke:#A80036;stroke-width:1.0;"/><polygon fill="#A80036" points="292,204.92,296,195.92,292,199.92,288,195.92,292,204.92" style="stroke:#A80036;stroke-width:1.0;"/><text fill="#000000" font-family="sans-serif" font-size="13" lengthAdjust="spacing" textLength="98" x="181.4438" y="193.9115">read and writes</text><!--MD5=[119d3c638104072901c63dd74a2b01cf]
@startuml

!includeurl https://raw.githubusercontent.com/skleanthous/C4-PlantumlSkin/master/build/output/general/notes.puml

class Client

Client *- -> "1" ClientId
Client *- -> "1" ClientState

class ClientId {
    UUID id
}

class ClientState {
    name: String
    age: Int
    activated: Boolean
}

interface ClientRepository {
    +save(Client.State): Mono<Client>
    +save(ClientId, Client.State): Mono<Client>
    +save(Client): Mono<Client>
    +findOne(ClientId, activatedOnly: Boolean = true): Mono<Client>
    +findByName(name: String, strict: Boolean = false, activatedOnly: Boolean = true): Flux<Client>
    +findAll(activatedOnly: Boolean = true): Flux<Client>
    +remove(Client): Mono<Client>
}

ClientRepository - -> "read and writes" Client

@enduml

@startuml








skinparam note {
  BackgroundColor #F5F5F5
  BorderColor #707070
  FontColor #707070
}

class Client

Client *- -> "1" ClientId
Client *- -> "1" ClientState

class ClientId {
    UUID id
}

class ClientState {
    name: String
    age: Int
    activated: Boolean
}

interface ClientRepository {
    +save(Client.State): Mono<Client>
    +save(ClientId, Client.State): Mono<Client>
    +save(Client): Mono<Client>
    +findOne(ClientId, activatedOnly: Boolean = true): Mono<Client>
    +findByName(name: String, strict: Boolean = false, activatedOnly: Boolean = true): Flux<Client>
    +findAll(activatedOnly: Boolean = true): Flux<Client>
    +remove(Client): Mono<Client>
}

ClientRepository - -> "read and writes" Client

@enduml

PlantUML version 1.2021.16(Wed Dec 08 17:25:22 UTC 2021)
(GPL source distribution)
Java Runtime: OpenJDK Runtime Environment
JVM: OpenJDK 64-Bit Server VM
Default Encoding: UTF-8
Language: en
Country: 
--></g></svg>