<?xml version="1.0" encoding="UTF-8" standalone="no"?><svg xmlns="http://www.w3.org/2000/svg" xmlns:xlink="http://www.w3.org/1999/xlink" contentScriptType="application/ecmascript" contentStyleType="text/css" height="979px" preserveAspectRatio="none" style="width:1117px;height:979px;background:#FFFFFF;" version="1.1" viewBox="0 0 1117 979" width="1117px" zoomAndPan="magnify"><defs><filter height="300%" id="fqgv8x9yaek1f" width="300%" x="-1" y="-1"><feGaussianBlur result="blurOut" stdDeviation="2.0"/><feColorMatrix in="blurOut" result="blurOut2" type="matrix" values="0 0 0 0 0 0 0 0 0 0 0 0 0 0 0 0 0 0 .4 0"/><feOffset dx="4.0" dy="4.0" in="blurOut2" result="blurOut3"/><feBlend in="SourceGraphic" in2="blurOut3" mode="normal"/></filter></defs><g><!--MD5=[898f5dc2e0adb5caa29fdb2b6e54018b]
cluster edu.obya.blueprint.client--><polygon fill="#FFFFFF" filter="url(#fqgv8x9yaek1f)" points="183.5,6,386.5,6,393.5,28.2969,872.5,28.2969,872.5,849.5,183.5,849.5,183.5,6" style="stroke:#000000;stroke-width:1.5;"/><line style="stroke:#000000;stroke-width:1.5;" x1="183.5" x2="393.5" y1="28.2969" y2="28.2969"/><text fill="#000000" font-family="sans-serif" font-size="14" font-weight="bold" lengthAdjust="spacing" textLength="197" x="187.5" y="20.9951">edu.obya.blueprint.client</text><!--MD5=[431e82c70218a45a651187a9676a332a]
cluster appl--><rect fill="#FFFFFF" filter="url(#fqgv8x9yaek1f)" height="158" style="stroke:#000000;stroke-width:1.5;" width="290" x="340.5" y="250"/><rect fill="#FFFFFF" height="10" style="stroke:#000000;stroke-width:1.5;" width="15" x="610.5" y="255"/><rect fill="#FFFFFF" height="2" style="stroke:#000000;stroke-width:1.5;" width="4" x="608.5" y="257"/><rect fill="#FFFFFF" height="2" style="stroke:#000000;stroke-width:1.5;" width="4" x="608.5" y="261"/><text fill="#000000" font-family="sans-serif" font-size="14" font-weight="bold" lengthAdjust="spacing" textLength="85" x="443" y="275.9951">application</text><!--MD5=[27f772719433d509ddbc20ff768eba08]
cluster domain--><rect fill="#FFFFFF" filter="url(#fqgv8x9yaek1f)" height="289" style="stroke:#000000;stroke-width:1.5;" width="301" x="547.5" y="460"/><rect fill="#FFFFFF" height="10" style="stroke:#000000;stroke-width:1.5;" width="15" x="828.5" y="465"/><rect fill="#FFFFFF" height="2" style="stroke:#000000;stroke-width:1.5;" width="4" x="826.5" y="467"/><rect fill="#FFFFFF" height="2" style="stroke:#000000;stroke-width:1.5;" width="4" x="826.5" y="471"/><text fill="#000000" font-family="sans-serif" font-size="14" font-weight="bold" lengthAdjust="spacing" textLength="57" x="669.5" y="485.9951">domain</text><!--MD5=[db7683648a36033af5014485fe1667bc]
cluster web--><rect fill="#FFFFFF" filter="url(#fqgv8x9yaek1f)" height="132" style="stroke:#000000;stroke-width:1.5;" width="175" x="604.5" y="57"/><rect fill="#FFFFFF" height="10" style="stroke:#000000;stroke-width:1.5;" width="15" x="759.5" y="62"/><rect fill="#FFFFFF" height="2" style="stroke:#000000;stroke-width:1.5;" width="4" x="757.5" y="64"/><rect fill="#FFFFFF" height="2" style="stroke:#000000;stroke-width:1.5;" width="4" x="757.5" y="68"/><text fill="#000000" font-family="sans-serif" font-size="14" font-weight="bold" lengthAdjust="spacing" textLength="34" x="675" y="82.9951">web</text><!--MD5=[dce4c2b5694dd28223e7b1d160ba96c4]
cluster data--><rect fill="#FFFFFF" filter="url(#fqgv8x9yaek1f)" height="132" style="stroke:#000000;stroke-width:1.5;" width="176" x="343.5" y="492.5"/><rect fill="#FFFFFF" height="10" style="stroke:#000000;stroke-width:1.5;" width="15" x="499.5" y="497.5"/><rect fill="#FFFFFF" height="2" style="stroke:#000000;stroke-width:1.5;" width="4" x="497.5" y="499.5"/><rect fill="#FFFFFF" height="2" style="stroke:#000000;stroke-width:1.5;" width="4" x="497.5" y="503.5"/><text fill="#000000" font-family="sans-serif" font-size="14" font-weight="bold" lengthAdjust="spacing" textLength="75" x="394" y="518.4951">infra.data</text><!--MD5=[ce1c0195088fc6ead5c2a3aeac01380f]
entity external--><rect fill="#FEFECE" filter="url(#fqgv8x9yaek1f)" height="46.2969" style="stroke:#A80036;stroke-width:1.5;" width="128" x="690.5" y="787.5"/><rect fill="#FEFECE" height="10" style="stroke:#A80036;stroke-width:1.5;" width="15" x="798.5" y="792.5"/><rect fill="#FEFECE" height="2" style="stroke:#A80036;stroke-width:1.5;" width="4" x="796.5" y="794.5"/><rect fill="#FEFECE" height="2" style="stroke:#A80036;stroke-width:1.5;" width="4" x="796.5" y="798.5"/><text fill="#000000" font-family="sans-serif" font-size="14" lengthAdjust="spacing" textLength="88" x="705.5" y="820.4951">infra.external</text><text fill="#000000" font-family="sans-serif" font-size="14" lengthAdjust="spacing" textLength="49" x="588" y="228.6982">service</text><rect fill="#A80036" height="12" style="stroke:#FEFECE;stroke-width:1.5;" width="12" x="606.5" y="244"/><text fill="#000000" font-family="sans-serif" font-size="14" lengthAdjust="spacing" textLength="69" x="406" y="426.9951">repository</text><rect fill="#A80036" height="12" style="stroke:#FEFECE;stroke-width:1.5;" width="12" x="434.5" y="402"/><text fill="#000000" font-family="sans-serif" font-size="14" lengthAdjust="spacing" textLength="37" x="340" y="426.9951">client</text><rect fill="#A80036" height="12" style="stroke:#FEFECE;stroke-width:1.5;" width="12" x="352.5" y="402"/><!--MD5=[96e4b3dc1abe32a7f76a75976d592d03]
entity applm--><rect fill="#FEFECE" filter="url(#fqgv8x9yaek1f)" height="46.2969" style="stroke:#A80036;stroke-width:1.5;" width="158" x="368.5" y="321.5"/><rect fill="#FEFECE" height="10" style="stroke:#A80036;stroke-width:1.5;" width="15" x="506.5" y="326.5"/><rect fill="#FEFECE" height="2" style="stroke:#A80036;stroke-width:1.5;" width="4" x="504.5" y="328.5"/><rect fill="#FEFECE" height="2" style="stroke:#A80036;stroke-width:1.5;" width="4" x="504.5" y="332.5"/><text fill="#000000" font-family="sans-serif" font-size="14" lengthAdjust="spacing" textLength="118" x="383.5" y="354.4951">Command model</text><text fill="#000000" font-family="sans-serif" font-size="14" lengthAdjust="spacing" textLength="49" x="588" y="438.6982">service</text><rect fill="#A80036" height="12" style="stroke:#FEFECE;stroke-width:1.5;" width="12" x="606.5" y="454"/><text fill="#000000" font-family="sans-serif" font-size="14" lengthAdjust="spacing" textLength="69" x="531" y="767.9951">repository</text><rect fill="#A80036" height="12" style="stroke:#FEFECE;stroke-width:1.5;" width="12" x="559.5" y="743"/><!--MD5=[086b1281b1127995763cd5b7e3480964]
entity dom--><rect fill="#FEFECE" filter="url(#fqgv8x9yaek1f)" height="46.2969" style="stroke:#A80036;stroke-width:1.5;" width="140" x="684.5" y="664.5"/><rect fill="#FEFECE" height="10" style="stroke:#A80036;stroke-width:1.5;" width="15" x="804.5" y="669.5"/><rect fill="#FEFECE" height="2" style="stroke:#A80036;stroke-width:1.5;" width="4" x="802.5" y="671.5"/><rect fill="#FEFECE" height="2" style="stroke:#A80036;stroke-width:1.5;" width="4" x="802.5" y="675.5"/><text fill="#000000" font-family="sans-serif" font-size="14" lengthAdjust="spacing" textLength="100" x="699.5" y="697.4951">Domain model</text><!--MD5=[d04fdf3b274b633506dabc6920e8b246]
entity webm--><rect fill="#FEFECE" filter="url(#fqgv8x9yaek1f)" height="46.2969" style="stroke:#A80036;stroke-width:1.5;" width="108" x="647.5" y="119"/><rect fill="#FEFECE" height="10" style="stroke:#A80036;stroke-width:1.5;" width="15" x="735.5" y="124"/><rect fill="#FEFECE" height="2" style="stroke:#A80036;stroke-width:1.5;" width="4" x="733.5" y="126"/><rect fill="#FEFECE" height="2" style="stroke:#A80036;stroke-width:1.5;" width="4" x="733.5" y="130"/><text fill="#000000" font-family="sans-serif" font-size="14" lengthAdjust="spacing" textLength="68" x="662.5" y="151.9951">API model</text><!--MD5=[3a1a0951a50258183b731b61554c572e]
entity dam--><rect fill="#FEFECE" filter="url(#fqgv8x9yaek1f)" height="46.2969" style="stroke:#A80036;stroke-width:1.5;" width="119" x="376" y="554.5"/><rect fill="#FEFECE" height="10" style="stroke:#A80036;stroke-width:1.5;" width="15" x="475" y="559.5"/><rect fill="#FEFECE" height="2" style="stroke:#A80036;stroke-width:1.5;" width="4" x="473" y="561.5"/><rect fill="#FEFECE" height="2" style="stroke:#A80036;stroke-width:1.5;" width="4" x="473" y="565.5"/><text fill="#000000" font-family="sans-serif" font-size="14" lengthAdjust="spacing" textLength="79" x="391" y="587.4951">Data model</text><!--MD5=[7468467f3b6b392f1d176d828c753b77]
entity db--><path d="M6,565 C6,555 62.5,555 62.5,555 C62.5,555 119,555 119,565 L119,590.2969 C119,600.2969 62.5,600.2969 62.5,600.2969 C62.5,600.2969 6,600.2969 6,590.2969 L6,565 " fill="#FEFECE" filter="url(#fqgv8x9yaek1f)" style="stroke:#000000;stroke-width:1.5;"/><path d="M6,565 C6,575 62.5,575 62.5,575 C62.5,575 119,575 119,565 " fill="none" style="stroke:#000000;stroke-width:1.5;"/><text fill="#000000" font-family="sans-serif" font-size="14" lengthAdjust="spacing" textLength="93" x="16" y="591.9951">ClientStorage</text><!--MD5=[b24760b0d8d7d81ed410bc087ce25465]
entity addrc--><ellipse cx="754.5" cy="941.5" fill="#FEFECE" filter="url(#fqgv8x9yaek1f)" rx="8" ry="8" style="stroke:#A80036;stroke-width:1.5;"/><text fill="#000000" font-family="sans-serif" font-size="14" lengthAdjust="spacing" textLength="140" x="684.5" y="971.4951">AddressChecker API</text><path d="M888.5,667.5 L888.5,707.7656 L1090.5,707.7656 L1090.5,677.5 L1080.5,667.5 L888.5,667.5 " fill="#F5F5F5" filter="url(#fqgv8x9yaek1f)" style="stroke:#707070;stroke-width:1.0;"/><path d="M1080.5,667.5 L1080.5,677.5 L1090.5,677.5 L1080.5,667.5 " fill="#F5F5F5" style="stroke:#707070;stroke-width:1.0;"/><text fill="#707070" font-family="sans-serif" font-size="13" lengthAdjust="spacing" textLength="181" x="894.5" y="684.5669">Domain model composed of</text><text fill="#707070" font-family="sans-serif" font-size="13" lengthAdjust="spacing" textLength="166" x="902" y="699.6997">entities, objects, and logic</text><path d="M889,317 L889,372.3984 L1108,372.3984 L1108,327 L1098,317 L889,317 " fill="#F5F5F5" filter="url(#fqgv8x9yaek1f)" style="stroke:#707070;stroke-width:1.0;"/><path d="M1098,317 L1098,327 L1108,327 L1098,317 " fill="#F5F5F5" style="stroke:#707070;stroke-width:1.0;"/><text fill="#707070" font-family="sans-serif" font-size="13" lengthAdjust="spacing" textLength="107" x="940.5" y="334.0669">Application logic,</text><text fill="#707070" font-family="sans-serif" font-size="13" lengthAdjust="spacing" textLength="198" x="895" y="349.1997">orchestration of the use cases,</text><text fill="#707070" font-family="sans-serif" font-size="13" lengthAdjust="spacing" textLength="147" x="920.5" y="364.3325">transaction boundaries</text><path d="M888.5,790.5 L888.5,806.5 L818.72,810.5 L888.5,814.5 L888.5,830.7656 A0,0 0 0 0 888.5,830.7656 L1100.5,830.7656 A0,0 0 0 0 1100.5,830.7656 L1100.5,800.5 L1090.5,790.5 L888.5,790.5 A0,0 0 0 0 888.5,790.5 " fill="#F5F5F5" filter="url(#fqgv8x9yaek1f)" style="stroke:#707070;stroke-width:1.0;"/><path d="M1090.5,790.5 L1090.5,800.5 L1100.5,800.5 L1090.5,790.5 " fill="#F5F5F5" style="stroke:#707070;stroke-width:1.0;"/><text fill="#707070" font-family="sans-serif" font-size="13" lengthAdjust="spacing" textLength="187" x="894.5" y="807.5669">Interface to external systems</text><text fill="#707070" font-family="sans-serif" font-size="13" lengthAdjust="spacing" textLength="75" x="952.5" y="822.6997">and models</text><!--MD5=[9ac72483af294831723cc7a201d3e1f2]
link web to appls--><path d="M612.5,189.1686 C612.5,189.331 612.5,189.4934 612.5,189.6559 C612.5,192.2563 612.5,194.8773 612.5,197.4935 C612.5,202.7259 612.5,207.9389 612.5,212.9284 C612.5,222.9075 612.5,231.9925 612.5,238.55 " fill="none" id="web-to-appls" style="stroke:#707070;stroke-width:1.0;stroke-dasharray:7.0,7.0;"/><polygon fill="#707070" points="612.5,243.76,616.5,234.76,612.5,238.76,608.5,234.76,612.5,243.76" style="stroke:#707070;stroke-width:1.0;"/><!--MD5=[a00fa6a1b67661cbdbba0e78dd47a815]
link web to applm--><path d="M604.2956,148.6587 C604.1181,148.7839 603.9381,148.9111 603.7557,149.0401 C603.0259,149.5563 602.257,150.1029 601.4513,150.6787 C595.0056,155.2856 586.21,161.7675 576.3425,169.5775 C556.6075,185.1975 532.585,206.13 514.5,228 C491.65,255.63 471.95,292.04 459.94,316.53 " fill="none" id="web-to-applm" style="stroke:#707070;stroke-width:1.0;stroke-dasharray:7.0,7.0;"/><polygon fill="#707070" points="457.64,321.27,465.1702,314.922,459.8245,316.7725,457.9741,311.4268,457.64,321.27" style="stroke:#707070;stroke-width:1.0;"/><!--MD5=[567fcf081c6d69d2fd24b5923d698d12]
link web to dom--><path d="M621.3111,189.2865 C621.3562,189.3877 621.4016,189.4888 621.4473,189.5898 C621.8123,190.3981 622.1922,191.1997 622.5875,191.9929 C623.3781,193.5793 624.2304,195.1323 625.1494,196.6383 C626.9872,199.6502 629.0913,202.4738 631.5,205 C669.26,244.61 746.5,194.28 746.5,249 C746.5,249 746.5,249 746.5,461 C746.5,532.57 750.57,616.83 752.91,659.22 " fill="none" id="web-to-dom" style="stroke:#707070;stroke-width:1.0;stroke-dasharray:7.0,7.0;"/><polygon fill="#707070" points="753.2,664.42,756.68,655.2065,752.9148,659.4281,748.6931,655.6629,753.2,664.42" style="stroke:#707070;stroke-width:1.0;"/><text fill="#000000" font-family="sans-serif" font-size="13" lengthAdjust="spacing" textLength="70" x="747.5" y="349.0669">uses/maps</text><!--MD5=[d268b87c627c9791318e82b817fb0310]
link appl to dos--><path d="M612.5,408.2852 C612.5,408.5695 612.5,408.8536 612.5,409.1374 C612.5,409.7051 612.5,410.2718 612.5,410.8374 C612.5,411.9686 612.5,413.0951 612.5,414.2151 C612.5,418.695 612.5,423.0709 612.5,427.2239 C612.5,435.53 612.5,442.945 612.5,448.52 " fill="none" id="appl-to-dos" style="stroke:#707070;stroke-width:1.0;stroke-dasharray:7.0,7.0;"/><polygon fill="#707070" points="612.5,453.74,616.5,444.74,612.5,448.74,608.5,444.74,612.5,453.74" style="stroke:#707070;stroke-width:1.0;"/><!--MD5=[e455b23dee20426fc8b029eda1a4b581]
link appl to dor--><path d="M596.0399,408.0038 C595.5665,410.0028 595.0969,412.0123 594.6333,414.0261 C592.7788,422.0813 591.02,430.205 589.5,438 C571.41,530.75 566.18,554.24 559.5,648.5 C557.05,683.08 554.8,692.15 559.5,726.5 C560.01,730.23 561,734.22 562.03,737.74 " fill="none" id="appl-to-dor" style="stroke:#707070;stroke-width:1.0;stroke-dasharray:7.0,7.0;"/><polygon fill="#707070" points="563.61,742.78,564.7268,732.9947,562.1105,738.0101,557.095,735.3939,563.61,742.78" style="stroke:#707070;stroke-width:1.0;"/><!--MD5=[cebcdcdb0a3a936548ca3924372b8e80]
link appl to dom--><path d="M630.5696,366.8778 C631.1466,367.5972 631.7322,368.3309 632.3256,369.0783 C637.0731,375.0572 642.3225,381.9106 647.6625,389.3238 C658.3425,404.15 669.385,421.215 677.5,438 C718.35,522.51 707.88,551.43 737.5,640.5 C739.51,646.56 741.81,653.02 744.04,659.12 " fill="none" id="appl-to-dom" style="stroke:#707070;stroke-width:1.0;stroke-dasharray:7.0,7.0;"/><polygon fill="#707070" points="745.9,664.14,746.5379,654.3118,744.1695,659.449,739.0323,657.0806,745.9,664.14" style="stroke:#707070;stroke-width:1.0;"/><!--MD5=[524c55b1e8fb30b05760c87e8f39ab1e]
link data to dom--><path d="M350.0563,624.789 C350.1758,625.1878 350.3005,625.5845 350.4305,625.9788 C350.6907,626.7675 350.9724,627.5467 351.277,628.3145 C351.8861,629.8501 352.5866,631.3403 353.3886,632.7699 C354.9925,635.6292 357.0025,638.2463 359.5,640.5 C372.17,651.93 649.84,644.83 666.5,648.5 C680.25,651.53 694.52,656.71 707.47,662.28 " fill="none" id="data-to-dom" style="stroke:#707070;stroke-width:1.0;stroke-dasharray:7.0,7.0;"/><polygon fill="#707070" points="712.18,664.35,705.5569,657.0606,707.6045,662.3339,702.3312,664.3815,712.18,664.35" style="stroke:#707070;stroke-width:1.0;"/><!--MD5=[a4c314b15e7e407d66f9cd5c8919482a]
reverse link db to data--><path d="M84.43,550.71 C106.49,526.06 142.96,491.19 183.5,476.5 C217.76,464.08 321.22,451.24 347.5,476.5 C349.43,478.355 350.9569,481.2016 352.1493,484.7771 C352.7455,486.5649 353.2581,488.5349 353.6957,490.6543 C353.8051,491.1841 353.9098,491.7233 354.0099,492.2713 " fill="none" id="db-backto-data" style="stroke:#707070;stroke-width:1.0;stroke-dasharray:7.0,7.0;"/><polygon fill="#707070" points="81.02,554.57,89.9812,550.4838,84.3347,550.8267,83.9918,545.1802,81.02,554.57" style="stroke:#707070;stroke-width:1.0;"/><text fill="#000000" font-family="sans-serif" font-size="13" lengthAdjust="spacing" textLength="77" x="120" y="464.5669">reads/writes</text><!--MD5=[b70349a1689424225f59ed5f95e5fc52]
reverse link dor to data--><path d="M540.63,736.17 C520.16,731.27 507.77,736.3 484.5,726.5 C453.43,713.41 377.07,669.28 359.5,640.5 C357.7463,637.6288 356.3,634.5438 355.1125,631.3389 C354.5187,629.7364 353.9896,628.104 353.5192,626.4534 C353.4015,626.0407 353.2876,625.6269 353.1772,625.2121 C353.122,625.0048 353.0677,624.7971 353.0142,624.5893 " fill="none" id="dor-backto-data" style="stroke:#707070;stroke-width:1.0;stroke-dasharray:7.0,7.0;"/><polygon fill="none" points="543.14,729.64,559.64,742.93,538.45,742.83,543.14,729.64" style="stroke:#707070;stroke-width:1.0;"/><text fill="#000000" font-family="sans-serif" font-size="13" lengthAdjust="spacing" textLength="44" x="485.5" y="692.0669">adapts</text><!--MD5=[df1355832b8f3c0ff2d6c7503d412374]
reverse link applr to data--><path d="M416.71,421.67 C397.66,433.22 372.1,452.17 359.5,476.5 C356.9763,481.3713 354.9525,486.5578 353.3439,491.9083 C353.2936,492.0755 353.2438,492.2429 353.1943,492.4104 " fill="none" id="applr-backto-data" style="stroke:#707070;stroke-width:1.0;stroke-dasharray:7.0,7.0;"/><polygon fill="none" points="413.53,415.43,434.42,411.89,420.3,427.68,413.53,415.43" style="stroke:#707070;stroke-width:1.0;"/><text fill="#000000" font-family="sans-serif" font-size="13" lengthAdjust="spacing" textLength="44" x="393.5" y="464.5669">adapts</text><!--MD5=[7417d67084e6fe892fde0281385c3519]
reverse link dom to external--><path d="M754.5,715.73 C754.5,737.38 754.5,767.28 754.5,787.45 " fill="none" id="dom-backto-external" style="stroke:#707070;stroke-width:1.0;stroke-dasharray:7.0,7.0;"/><polygon fill="#707070" points="754.5,710.69,750.5,719.69,754.5,715.69,758.5,719.69,754.5,710.69" style="stroke:#707070;stroke-width:1.0;"/><text fill="#000000" font-family="sans-serif" font-size="13" lengthAdjust="spacing" textLength="70" x="755.5" y="753.5669">uses/maps</text><!--MD5=[f8be33db0a18765190ee1b885b456f0a]
reverse link applc to external--><path d="M333.05,416.76 C307.02,426.21 267.98,444.96 250.5,476.5 C215.17,540.25 219,574.77 250.5,640.5 C312.11,769.06 404.01,741.61 543.5,771 C592.51,781.33 648.26,791.43 690.15,798.69 " fill="none" id="applc-backto-external" style="stroke:#707070;stroke-width:1.0;stroke-dasharray:7.0,7.0;"/><polygon fill="none" points="331.13,410.02,352.31,410.59,335.4,423.35,331.13,410.02" style="stroke:#707070;stroke-width:1.0;"/><text fill="#000000" font-family="sans-serif" font-size="13" lengthAdjust="spacing" textLength="83" x="251.5" y="582.0669">adapts (ACL)</text><!--MD5=[e2e1cd8a6af7e2827c7ff9595755e640]
link external to addrc--><path d="M754.5,833.68 C754.5,860.64 754.5,905.27 754.5,927.32 " fill="none" id="external-to-addrc" style="stroke:#707070;stroke-width:1.0;stroke-dasharray:7.0,7.0;"/><polygon fill="#707070" points="754.5,932.42,758.5,923.42,754.5,927.42,750.5,923.42,754.5,932.42" style="stroke:#707070;stroke-width:1.0;"/><text fill="#000000" font-family="sans-serif" font-size="13" lengthAdjust="spacing" textLength="66" x="755.5" y="878.5669">consumes</text><!--MD5=[ab3a0f0069f5afd5c6ca74034a251c3d]
link domain to GMN49--><path d="M848.6027,569.1879 C848.8424,569.3054 849.082,569.4233 849.3215,569.5415 C850.2793,570.0147 851.235,570.4943 852.1884,570.9801 C854.0952,571.9517 855.9929,572.9482 857.8808,573.9676 C861.6566,576.0064 865.3931,578.137 869.0844,580.3445 C883.8494,589.1747 897.89,599.2356 910.8225,609.5738 C936.6875,630.25 958.12,652.035 972.05,667.3 " fill="none" id="domain-GMN49" style="stroke:#707070;stroke-width:1.0;stroke-dasharray:7.0,7.0;"/><!--MD5=[a9861fe33a1dd150bfd681d55342f051]
link GMN52 to appl--><path d="M946.02,317 C889.99,291.23 798.75,259.6 721,280.75 C701.5,286.055 681.925,295.85 664.8763,306.1975 C656.3519,311.3713 648.4591,316.6831 641.523,321.6409 C638.0549,324.1198 634.8261,326.5102 631.877,328.7506 C631.5084,329.0306 631.1441,329.3083 630.7843,329.5836 C630.6944,329.6524 630.6047,329.721 630.5153,329.7895 " fill="none" id="GMN52-appl" style="stroke:#707070;stroke-width:1.0;stroke-dasharray:7.0,7.0;"/><!--MD5=[f390267d4029ef0b5918efb18dfcadd6]
@startuml

!includeurl https://raw.githubusercontent.com/skleanthous/C4-PlantumlSkin/master/build/output/general/general.puml
!includeurl https://raw.githubusercontent.com/skleanthous/C4-PlantumlSkin/master/build/output/general/notes.puml

package edu.obya.blueprint.client {

component application as appl {
    portin service as appls
    portout repository as applr
    portout client as applc
    component "Command model" as applm
}

component domain {
    portin service as dos
    portout repository as dor
    component "Domain model" as dom
}

component web {
    component "API model" as webm
}

component infra.data as data {
    component "Data model" as dam
}

component infra.external as external

}

database ClientStorage as db
() "AddressChecker API" as addrc

web ..> appls
web ..> applm
web ..> dom : uses/maps
appl ..> dos
appl ..> dor
appl ..> dom
data ..> dom : uses/maps
data .left.> db : reads/writes
data .up.|> dor : adapts
data .up.|> applr : adapts
external .up.> dom : uses/maps
external .up.|> applc : adapts (ACL)
external ..> addrc : consumes

note right of domain
  Domain model composed of
  entities, objects, and logic
end note

note left of appl
  Application logic,
  orchestration of the use cases,
  transaction boundaries
end note

note left of external
  Interface to external systems and models
end note

@enduml

@startuml








skinparam {
  shadowing true
  arrowColor #707070
  defaultTextAlignment center
  wrapWidth 200
  maxMessageSize 150
}

skinparam note {
  BackgroundColor #F5F5F5
  BorderColor #707070
  FontColor #707070
}

package edu.obya.blueprint.client {

component application as appl {
    portin service as appls
    portout repository as applr
    portout client as applc
    component "Command model" as applm
}

component domain {
    portin service as dos
    portout repository as dor
    component "Domain model" as dom
}

component web {
    component "API model" as webm
}

component infra.data as data {
    component "Data model" as dam
}

component infra.external as external

}

database ClientStorage as db
() "AddressChecker API" as addrc

web ..> appls
web ..> applm
web ..> dom : uses/maps
appl ..> dos
appl ..> dor
appl ..> dom
data ..> dom : uses/maps
data .left.> db : reads/writes
data .up.|> dor : adapts
data .up.|> applr : adapts
external .up.> dom : uses/maps
external .up.|> applc : adapts (ACL)
external ..> addrc : consumes

note right of domain
  Domain model composed of
  entities, objects, and logic
end note

note left of appl
  Application logic,
  orchestration of the use cases,
  transaction boundaries
end note

note left of external
  Interface to external systems and models
end note

@enduml

PlantUML version 1.2021.16(Wed Dec 08 17:25:22 UTC 2021)
(GPL source distribution)
Java Runtime: OpenJDK Runtime Environment
JVM: OpenJDK 64-Bit Server VM
Default Encoding: UTF-8
Language: en
Country: 
--></g></svg>